<svg xmlns="http://www.w3.org/2000/svg" viewBox="0 0 512 512">
  <!-- Amber background with rounded corners -->
  <rect width="512" height="512" rx="96" fill="#78350f"/>

  <!-- Flame (Lucide flame path, filled, scaled and centered) -->
  <g transform="translate(106, 56) scale(12.5)">
    <path
      d="M8.5 14.5A2.5 2.5 0 0 0 11 12c0-1.38-.5-2-1-3-1.072-2.143-.224-4.054 2-6 .5 2.5 2 4.9 4 6.5 2 1.6 3 3.5 3 5.5a7 7 0 1 1-14 0c0-1.153.433-2.294 1-3a2.5 2.5 0 0 0 2.5 2.5z"
      fill="#fb923c"
    />
  </g>

  <!-- Inner glow/highlight -->
  <g transform="translate(136, 120) scale(10)">
    <path
      d="M8.5 14.5A2.5 2.5 0 0 0 11 12c0-1.38-.5-2-1-3-1.072-2.143-.224-4.054 2-6 .5 2.5 2 4.9 4 6.5 2 1.6 3 3.5 3 5.5a7 7 0 1 1-14 0c0-1.153.433-2.294 1-3a2.5 2.5 0 0 0 2.5 2.5z"
      fill="#fcd34d"
    />
  </g>
</svg>
